<svg id="Layer_1" data-name="Layer 1" xmlns="http://www.w3.org/2000/svg" viewBox="0 0 512 512"><defs><style>.cls-1{fill:#fff;}</style></defs><title>clear-night</title><path class="cls-1" d="M504,200a8,8,0,0,0-7.86,6.51C475.89,298.39,372.49,364.14,275,323.93a8,8,0,1,0-6.1,14.79c87.64,36.16,184.73-5,227.06-85.8,0,140.91-111.35,243-240,243-132.63,0-240-107.32-240-240C16.06,124.21,121.74,18.21,251.91,16,149.63,71.6,124.83,222.86,218.5,307a8,8,0,0,0,10.69-11.91c-97.61-87.63-52.25-252.61,68.32-279.2A8,8,0,0,0,296,0H256A254.27,254.27,0,0,0,75,75c-100,100-100,262,0,362s262,100,362,0a254.27,254.27,0,0,0,75-181V208a8,8,0,0,0-8-8Z" transform="translate(0 0)"/><path class="cls-1" d="M360,112a55.17,55.17,0,0,1,24.57,7.24C400.12,128.38,408,144.78,408,168a8,8,0,1,0,16,0c0-23.2,7.89-39.6,23.45-48.75A55.12,55.12,0,0,1,472,112a8,8,0,0,0,0-16,55.17,55.17,0,0,1-24.57-7.24C431.9,79.6,424,63.2,424,40a8,8,0,0,0-16,0c0,23.2-7.89,39.6-23.45,48.75A55.12,55.12,0,0,1,360,96a8,8,0,0,0,0,16Zm56-34.37A59.93,59.93,0,0,0,442,104,59.93,59.93,0,0,0,416,130.36,59.88,59.88,0,0,0,390.06,104,59.88,59.88,0,0,0,416,77.62Z" transform="translate(0 0)"/><path class="cls-1" d="M296,152c0,23.2-7.89,39.61-23.45,48.76A55.28,55.28,0,0,1,248,208a8,8,0,0,0,0,16,55.23,55.23,0,0,1,24.57,7.25C288.13,240.37,296,256.77,296,280a8,8,0,0,0,16,0c0-23.2,7.89-39.6,23.46-48.75A55,55,0,0,1,360.13,224a8,8,0,0,0-.08-16,55.3,55.3,0,0,1-24.57-7.24C319.91,191.59,312,175.18,312,152a8,8,0,0,0-16,0Zm34,64a59.93,59.93,0,0,0-26,26.37A59.91,59.91,0,0,0,278.08,216,59.93,59.93,0,0,0,304,189.6,60,60,0,0,0,330,216Z" transform="translate(0 0)"/><path class="cls-1" d="M242.37,314.3a8,8,0,1,0,11.32,0A8,8,0,0,0,242.37,314.3Z" transform="translate(0 0)"/></svg>