<svg id="Capa_1" data-name="Capa 1" xmlns="http://www.w3.org/2000/svg" viewBox="0 0 512 333.91"><defs><style>.cls-1{fill:#fff;}</style></defs><title>cloudy</title><path class="cls-1" d="M419.53,223C404,146,335.38,89,256,89S108,146,92.48,223a100.13,100.13,0,0,0,7.69,200H411.83a100.13,100.13,0,0,0,7.7-200Zm-7.7,177.7H100.17a78,78,0,0,1-77.91-77.92c0-43,35-77.91,77.36-78,.12,0,.25,0,.39,0s.1,0,.15.06.17,0,.26,0a11.79,11.79,0,0,0,1.32.13,73.09,73.09,0,0,1,17.75,2.26,9,9,0,0,0,1.35.47,78.31,78.31,0,0,1,46.84,36.13A11.13,11.13,0,0,0,187,272.7a100.78,100.78,0,0,0-58.67-46,10.85,10.85,0,0,0-1.6-.57A101.43,101.43,0,0,0,115,223.72c14.86-64.86,73.46-112.42,141-112.42s126.15,47.56,141,112.41a103,103,0,0,0-11.68,2.39,11.82,11.82,0,0,0-1.58.56,100.91,100.91,0,0,0-58.7,46,11.14,11.14,0,0,0,19.28,11.15,78.35,78.35,0,0,1,46.83-36.13,12.5,12.5,0,0,0,1.34-.47A73.13,73.13,0,0,1,410.28,245a5.78,5.78,0,0,0,1.56-.11,77.92,77.92,0,0,1,0,155.84Z" transform="translate(0 -89.04)"/></svg>