<?xml version="1.0"?>
<svg xmlns="http://www.w3.org/2000/svg" id="Layer_1" enable-background="new 0 0 512 512" height="512px" viewBox="0 0 512 512" width="512px"><g><path d="m207.519 56c0-13.233-10.766-24-24-24s-24 10.767-24 24v317.389c-19.352 9.185-32 28.857-32 50.611 0 30.879 25.122 56 56 56s56-25.121 56-56c0-21.754-12.648-41.426-32-50.611zm-16 184h-16v-48h16zm0-64h-16v-48h16zm-16 80h16v48h-16zm8-208c4.411 0 8 3.589 8 8v56h-16v-56c0-4.411 3.589-8 8-8zm40 376c0 22.056-17.944 40-40 40s-40-17.944-40-40c0-16.927 10.716-32.088 26.666-37.727 3.196-1.13 5.334-4.152 5.334-7.543v-58.73h16v58.73c0 3.391 2.137 6.413 5.333 7.543 15.951 5.639 26.667 20.8 26.667 37.727z" data-original="#000000" class="active-path" data-old_color="#000000" fill="#FFFFFF"/><path d="m239.519 356.108v-300.108c0-30.879-25.122-56-56-56s-56 25.121-56 56v160c0 4.418 3.581 8 8 8 4.418 0 8-3.582 8-8v-160c0-22.056 17.944-40 40-40s40 17.944 40 40v303.99c0 2.516 1.183 4.885 3.194 6.396 18.306 13.756 28.806 34.755 28.806 57.614 0 39.701-32.299 72-72 72s-72-32.299-72-72c0-22.859 10.499-43.858 28.806-57.614 2.011-1.511 3.194-3.88 3.194-6.396v-79.99c0-4.418-3.582-8-8-8-4.419 0-8 3.582-8 8v76.108c-20.388 16.793-32 41.314-32 67.892 0 48.523 39.477 88 88 88s88-39.477 88-88c0-26.578-11.611-51.099-32-67.892z" data-original="#000000" class="active-path" data-old_color="#000000" fill="#FFFFFF"/><path d="m141.179 253.66c3.115-3.116 3.117-8.203 0-11.32-3.113-3.114-8.203-3.117-11.32 0-3.113 3.114-3.116 8.203 0 11.32 3.129 3.127 8.216 3.103 11.32 0z" data-original="#000000" class="active-path" data-old_color="#000000" fill="#FFFFFF"/><path d="m415.345 182.339c-8.315-39.18-62.455-141.734-64.755-146.081-3.001-5.668-11.14-5.669-14.142 0-2.3 4.347-56.44 106.901-64.755 146.081-8.377 39.479 30.986 73.661 71.826 73.661 40.854 0 80.201-34.195 71.826-73.661zm-71.826 57.661c-30.304 0-62.395-25.025-56.174-54.339 6.139-28.927 40.987-98.708 56.174-128.298 15.187 29.587 50.034 99.363 56.174 128.298 6.227 29.341-25.887 54.339-56.174 54.339z" data-original="#000000" class="active-path" data-old_color="#000000" fill="#FFFFFF"/></g> </svg>
