<?xml version="1.0"?>
<svg xmlns="http://www.w3.org/2000/svg" xmlns:xlink="http://www.w3.org/1999/xlink" version="1.1" id="Capa_1" x="0px" y="0px" viewBox="0 0 368.008 368.008" style="enable-background:new 0 0 368.008 368.008;" xml:space="preserve" width="512px" height="512px" class=""><g><g>
	<g>
		<g>
			<path d="M39.316,207.968c0.232,0.024,0.464,0.032,0.696,0.032c3.848,0,7.2-2.776,7.872-6.64     c0.464-2.664,12.064-65.352,72.12-65.352h112v32c0,3.168,1.864,6.032,4.768,7.32c2.896,1.28,6.272,0.736,8.616-1.4l88-80     c1.664-1.52,2.616-3.664,2.616-5.92s-0.952-4.4-2.616-5.92l-88-80c-2.344-2.136-5.728-2.688-8.616-1.4     c-2.904,1.288-4.768,4.152-4.768,7.32v40h-112c-47.696,0-88,36.64-88,80v72C32.004,204.16,35.18,207.616,39.316,207.968z      M48.004,128.008c0-34.688,32.976-64,72-64h120c4.424,0,8-3.584,8-8V26.096l68.112,61.912l-68.112,61.912v-21.912     c0-4.416-3.576-8-8-8h-120c-37.304,0-59.328,19.968-72,39.784V128.008z" data-original="#000000" class="active-path" data-old_color="#000000" fill="#FFFFFF"/>
			<path d="M328.692,160.048c-4.12-0.392-7.856,2.504-8.568,6.608c-0.472,2.664-12.064,65.352-72.12,65.352h-104v-32     c0-3.104-1.8-5.928-4.608-7.248c-2.816-1.312-6.128-0.888-8.512,1.104l-96,80c-1.824,1.52-2.88,3.768-2.88,6.144     c0,2.376,1.056,4.624,2.88,6.144l96,80c1.464,1.224,3.288,1.856,5.12,1.856c1.152,0,2.312-0.248,3.392-0.752     c2.808-1.32,4.608-4.144,4.608-7.248v-40h104c47.704,0,88-36.64,88-80v-72C336.004,163.856,332.828,160.4,328.692,160.048z      M320.004,240.008c0,34.688-32.968,64-72,64h-112c-4.416,0-8,3.584-8,8v30.92L52.5,280.008l75.504-62.92v22.92     c0,4.416,3.584,8,8,8h112c37.304,0,59.328-19.968,72-39.784V240.008z" data-original="#000000" class="active-path" data-old_color="#000000" fill="#FFFFFF"/>
		</g>
	</g>
</g></g> </svg>
