<svg id="Capa_1" data-name="Capa 1" xmlns="http://www.w3.org/2000/svg" viewBox="0 0 512 333.91"><defs><style>.cls-1{fill:#fff;}</style></defs><title>fog</title><path class="cls-1" d="M500.87,133.57c-38,0-56.6-10.16-76.31-20.91-21.3-11.61-43.31-23.62-87-23.62s-65.67,12-87,23.62c-19.72,10.75-38.34,20.91-76.32,20.91s-56.55-10.16-76.25-20.91C76.77,101.05,54.76,89,11.13,89a11.13,11.13,0,1,0,0,22.26c38,0,56.55,10.16,76.26,20.91,21.28,11.61,43.28,23.62,86.91,23.62s65.67-12,87-23.62c19.73-10.75,38.35-20.91,76.33-20.91s56.59,10.16,76.31,20.91c21.3,11.61,43.3,23.62,87,23.62a11.13,11.13,0,0,0,0-22.26Z" transform="translate(0 -89.04)"/><path class="cls-1" d="M500.87,222.61c-38,0-56.6-10.15-76.31-20.9-21.3-11.61-43.31-23.62-87-23.62s-65.67,12-87,23.62c-19.72,10.75-38.34,20.9-76.32,20.9s-56.55-10.15-76.25-20.9c-21.28-11.61-43.29-23.62-86.92-23.62a11.13,11.13,0,1,0,0,22.26c38,0,56.55,10.15,76.26,20.9,21.28,11.61,43.28,23.62,86.91,23.62s65.67-12,87-23.62c19.73-10.75,38.35-20.9,76.33-20.9s56.59,10.15,76.31,20.9c21.3,11.61,43.3,23.62,87,23.62a11.13,11.13,0,0,0,0-22.26Z" transform="translate(0 -89.04)"/><path class="cls-1" d="M500.87,400.7c-38,0-56.6-10.16-76.31-20.91-21.3-11.61-43.31-23.62-87-23.62s-65.67,12-87,23.62c-19.72,10.75-38.34,20.91-76.32,20.91s-56.55-10.16-76.25-20.91c-21.28-11.61-43.29-23.62-86.92-23.62a11.13,11.13,0,1,0,0,22.26c38,0,56.55,10.16,76.26,20.91C108.67,411,130.67,423,174.3,423s65.67-12,87-23.62c19.73-10.75,38.35-20.91,76.33-20.91s56.59,10.16,76.31,20.91C435.2,411,457.2,423,500.87,423a11.13,11.13,0,0,0,0-22.26Z" transform="translate(0 -89.04)"/><path class="cls-1" d="M500.87,311.65c-38,0-56.6-10.15-76.31-20.9-21.3-11.61-43.31-23.62-87-23.62s-65.67,12-87,23.62c-19.72,10.75-38.34,20.9-76.32,20.9s-56.55-10.15-76.25-20.9c-21.28-11.61-43.29-23.62-86.92-23.62a11.13,11.13,0,1,0,0,22.26c38,0,56.55,10.15,76.26,20.9,21.28,11.61,43.28,23.62,86.91,23.62s65.67-12,87-23.62c19.73-10.75,38.35-20.9,76.33-20.9s56.59,10.15,76.31,20.9c21.3,11.61,43.3,23.62,87,23.62a11.13,11.13,0,0,0,0-22.26Z" transform="translate(0 -89.04)"/></svg>