<svg id="Capa_1" data-name="Capa 1" xmlns="http://www.w3.org/2000/svg" viewBox="0 0 370.88 512"><defs><style>.cls-1{fill:#fff;}</style></defs><title>humidity</title><path class="cls-1" d="M262.89,3.15a9.12,9.12,0,0,0-13.79,0C241.83,12.23,70.56,227.06,70.56,326.56,70.56,428.81,153.75,512,256,512s185.44-83.19,185.44-185.44C441.44,227.06,270.17,12.23,262.89,3.15ZM256,494.34c-92.52,0-167.78-75.26-167.78-167.78C88.22,244,223.6,64.69,256,23c32.4,41.71,167.78,221,167.78,303.59C423.78,419.08,348.52,494.34,256,494.34Z" transform="translate(-70.56 0)"/><path class="cls-1" d="M256,423.7a97.25,97.25,0,0,1-97.13-97.14,8.84,8.84,0,0,0-17.67,0A114.93,114.93,0,0,0,256,441.36a8.83,8.83,0,0,0,0-17.66Z" transform="translate(-70.56 0)"/><path class="cls-1" d="M362,282.41a44.15,44.15,0,1,0,44.15,44.15A44.21,44.21,0,0,0,362,282.41Zm0,70.64a26.49,26.49,0,1,1,26.49-26.49A26.52,26.52,0,0,1,362,353.05Z" transform="translate(-70.56 0)"/></svg>