<svg id="Capa_1" data-name="Capa 1" xmlns="http://www.w3.org/2000/svg" viewBox="0 0 512 512"><defs><style>.cls-1{fill:#fff;opacity:0.1;}</style></defs><title>openscreen-sun</title><path class="cls-1" d="M256,97.25C168.46,97.25,97.25,168.46,97.25,256S168.46,414.75,256,414.75,414.75,343.54,414.75,256,343.54,97.25,256,97.25Zm0,298.82c-77.24,0-140.07-62.83-140.07-140.07S178.76,115.93,256,115.93,396.07,178.76,396.07,256,333.24,396.07,256,396.07Z"/><path class="cls-1" d="M461.91,205.91a64.93,64.93,0,0,1-19.14-46.23V69.23H352.31a64.93,64.93,0,0,1-46.23-19.14L256,0,205.91,50.09a64.93,64.93,0,0,1-46.23,19.14H69.23v90.46a64.93,64.93,0,0,1-19.14,46.23L0,256l50.09,50.09a64.92,64.92,0,0,1,19.14,46.22v90.46h90.46a64.93,64.93,0,0,1,46.23,19.14L256,512l50.09-50.09a64.93,64.93,0,0,1,46.23-19.14h90.45V352.31a64.93,64.93,0,0,1,19.14-46.23L512,256Zm-13.2,87a83.45,83.45,0,0,0-24.62,59.42V424.1H352.31a83.49,83.49,0,0,0-59.43,24.62L256,485.59l-36.89-36.88a83.49,83.49,0,0,0-59.43-24.62H87.91V352.31a83.49,83.49,0,0,0-24.62-59.43L26.41,256l36.88-36.89a83.49,83.49,0,0,0,24.62-59.43V87.91h71.78a83.49,83.49,0,0,0,59.43-24.62L256,26.41l36.89,36.88a83.49,83.49,0,0,0,59.43,24.62h71.77v71.78a83.49,83.49,0,0,0,24.62,59.43L485.59,256Z"/><path class="cls-1" d="M162.62,256H143.94A112.19,112.19,0,0,0,256,368.06V349.38A93.49,93.49,0,0,1,162.62,256Z"/></svg>