<?xml version="1.0"?>
<svg xmlns="http://www.w3.org/2000/svg" xmlns:xlink="http://www.w3.org/1999/xlink" version="1.1" id="Capa_1" x="0px" y="0px" viewBox="0 0 368 368" style="enable-background:new 0 0 368 368;" xml:space="preserve" width="512px" height="512px"><g><g>
	<g>
		<path d="M344.96,195.312C359.696,179.208,368,158.056,368,136c0-48.52-39.48-88-88-88c-27.696,0-53.352,13.032-69.944,34.936    C201.528,81.024,192.792,80,184,80c-57.064,0-106.36,40.96-117.528,96.28C29.352,179.12,0,210.168,0,248c0,39.696,32.304,72,72,72    h224c39.696,0,72-32.304,72-72C368,227.92,359.512,208.84,344.96,195.312z M280,64c39.696,0,72,32.304,72,72    c0,18.584-7.208,36.384-19.944,49.696c-0.848-0.496-1.752-0.872-2.624-1.336c-0.848-0.448-1.696-0.888-2.568-1.304    c-2.656-1.272-5.368-2.392-8.152-3.32c-0.36-0.12-0.704-0.288-1.064-0.4c-3.128-0.992-6.328-1.704-9.568-2.256    c-0.896-0.152-1.792-0.24-2.696-0.36c-1.248-0.168-2.488-0.408-3.752-0.504c-8.176-40.552-36.624-73.872-75.096-88.408    C240.08,72.744,259.392,64,280,64z M296,304H72c-30.88,0-56-25.12-56-56s25.12-56,55.6-56.072c0.088,0.016,0.184,0.016,0.28,0.024    c0.04,0.008,0.072,0.032,0.112,0.04c0.368,0.056,0.736,0.08,1.104,0.08c0.008,0,0.024,0,0.032,0c4.168,0,8.456,0.544,12.752,1.624    c0.312,0.136,0.64,0.248,0.976,0.336c14.08,3.84,26.352,13.312,33.664,25.968c2.208,3.824,7.096,5.136,10.928,2.92    c3.824-2.208,5.136-7.104,2.92-10.928c-9.208-15.936-24.528-27.936-42.168-33.072c-0.368-0.168-0.752-0.304-1.152-0.408    c-2.8-0.752-5.6-1.32-8.4-1.72C93.328,130.184,135.448,96,184,96c9.208,0,18.352,1.224,27.168,3.64c0.008,0,0.008,0,0.016,0    s0.008,0.008,0.016,0.008c37.336,10.088,65.664,39.896,74.176,77.144c-2.8,0.408-5.608,0.968-8.408,1.728    c-0.4,0.104-0.784,0.24-1.152,0.408c-14.248,4.168-26.984,12.744-36.024,24.208c-0.024,0.032-0.064,0.04-0.088,0.072    c-0.024,0.032-0.04,0.064-0.064,0.096c-0.032,0.04-0.064,0.064-0.096,0.104c-0.032,0.04-0.032,0.088-0.064,0.128    c-2.2,2.68-4.2,5.544-5.896,8.568c-2.16,3.856-0.776,8.728,3.08,10.888c1.224,0.68,2.568,1.008,3.888,1.008    c2.808,0,5.528-1.48,6.992-4.096c1.272-2.28,2.768-4.448,4.44-6.456c0.032-0.04,0.04-0.088,0.064-0.128    c0.024-0.032,0.072-0.04,0.096-0.08c7.184-9.216,17.496-16.032,29.016-19.208c0.328-0.088,0.648-0.2,0.952-0.328    c4.304-1.08,8.592-1.624,12.768-1.624c0.504,0,0.624,0.016,1.12-0.08c11.656,0,22.856,3.584,32.408,10.36    C343.184,212.872,352,229.928,352,248C352,278.88,326.88,304,296,304z" data-original="#000000" class="active-path" data-old_color="#000000" fill="#FFFFFF"/>
	</g>
</g></g> </svg>
