<svg id="Layer_1" data-name="Layer 1" xmlns="http://www.w3.org/2000/svg" viewBox="0 0 512 311.98"><defs><style>.cls-1{fill:#fff;}</style></defs><title>partly-cloudy-night</title><path class="cls-1" d="M443.61,252.84c-25.2-86.92-138-109.48-194.83-39.08a79.84,79.84,0,0,0-53.87,7.4A40.15,40.15,0,0,1,232,196a8,8,0,0,0,0-16,40,40,0,0,1-40-40,8,8,0,0,0-16,0,40,40,0,0,1-40,40,8,8,0,1,0,0,16,40.1,40.1,0,0,1,40,39,80,80,0,0,0-21.68,38c-54.74-15.31-77.63-82.3-39.1-128.67,12.19-14.67,28.69-24.8,46.45-28.51A8,8,0,0,0,160,100H136C21.92,100-40.58,232.32,29.48,320.53a136.81,136.81,0,0,0,69.38,46.3A64.11,64.11,0,0,0,160,412h88a8,8,0,0,0,0-16H160a48,48,0,0,1,0-96,8,8,0,0,0,8-8,64,64,0,1,1,128,0,8,8,0,0,0,16,0,80.43,80.43,0,0,0-46.81-72.79c52.76-57.53,147-31.06,164.28,42.8a8,8,0,0,0,7.21,6.16A64,64,0,0,1,432,396H296a8,8,0,0,0,0,16H432a80,80,0,0,0,11.61-159.15ZM164.81,188A56.47,56.47,0,0,0,184,168.83,56.41,56.41,0,0,0,203.24,188,56.73,56.73,0,0,0,184,207.25,56.61,56.61,0,0,0,164.81,188ZM96.06,349.16a120,120,0,0,1,25-232.22C56.34,164.4,71.69,260.4,143.2,286.25A64,64,0,0,0,96.06,349.16Z" transform="translate(0 -100.01)"/><path class="cls-1" d="M272,396a8,8,0,1,0,8,8A8,8,0,0,0,272,396Z" transform="translate(0 -100.01)"/></svg>