<?xml version="1.0"?>
<svg xmlns="http://www.w3.org/2000/svg" xmlns:xlink="http://www.w3.org/1999/xlink" version="1.1" id="Capa_1" x="0px" y="0px" viewBox="0 0 439.76 439.76" style="enable-background:new 0 0 439.76 439.76;" xml:space="preserve" width="512px" height="512px"><g><g>
	<g>
		<path d="M435.88,191.76c0-55.464-94.04-160.88-98.048-165.344l-5.952-6.632l-5.952,6.632    c-0.304,0.336-27.824,31.136-53.328,67.576c-24.688-46.36-45.6-81.912-45.824-82.296L219.88,0l-6.896,11.696    c-0.44,0.744-41.968,71.376-77.376,144.504c-12.4-15.264-21.328-25.28-21.768-25.776l-5.952-6.648l-5.96,6.64    C97.92,134.88,3.88,240.296,3.88,295.76c0,57.344,46.656,104,104,104c4.904,0,9.832-0.456,14.72-1.152    c25.52,26.128,60.664,41.152,97.28,41.152c74.992,0,136-61.008,136-136c0-3.224-0.32-6.856-0.792-10.656    C401.656,282.472,435.88,240.28,435.88,191.76z M19.88,295.76c0-38.144,58.768-114.048,87.976-147.856    c4.72,5.496,11.88,13.992,20.112,24.296c-0.232,0.488-0.424,0.928-0.648,1.416c-3.224,6.872-6.288,13.544-9.152,19.976    c-0.368,0.832-0.728,1.648-1.096,2.472c-2.824,6.368-5.48,12.536-7.944,18.456c-0.312,0.744-0.6,1.464-0.904,2.2    c-2.432,5.904-4.704,11.608-6.776,17.056c-0.232,0.616-0.448,1.216-0.68,1.824c-2.056,5.456-3.936,10.712-5.616,15.704    c-0.168,0.488-0.312,0.952-0.472,1.44c-1.664,5.016-3.16,9.808-4.44,14.336c-0.104,0.36-0.184,0.704-0.288,1.064    c-1.272,4.56-2.36,8.896-3.232,12.952c-0.048,0.24-0.088,0.456-0.136,0.688c-0.864,4.104-1.536,7.976-1.984,11.544    c-0.016,0.112-0.016,0.208-0.032,0.32c-0.448,3.648-0.688,7.032-0.688,10.112c0,3.968,0.208,7.912,0.552,11.832    c0.112,1.264,0.304,2.512,0.448,3.768c0.304,2.656,0.648,5.296,1.104,7.912c0.256,1.456,0.568,2.896,0.864,4.344    c0.504,2.416,1.064,4.816,1.696,7.192c0.392,1.464,0.792,2.912,1.232,4.36c0.72,2.384,1.528,4.736,2.376,7.072    c0.488,1.344,0.952,2.688,1.48,4.016c1.048,2.616,2.208,5.176,3.416,7.72c0.464,0.976,0.872,1.976,1.36,2.944    c1.752,3.472,3.64,6.888,5.688,10.208c0.4,0.656,0.872,1.272,1.28,1.92c1.448,2.256,2.888,4.512,4.472,6.688    C60.544,384.992,19.88,344.936,19.88,295.76z M219.88,423.76c-33.6,0-65.88-14.216-88.568-38.992    C111.04,362.552,99.88,333.784,99.88,303.76c0-2.88,0.24-6.104,0.72-9.656c3.352-24.848,18.376-65.776,43.944-119.552l0.232-0.488    C172.512,115.52,205.752,56.352,219.88,31.72c9.152,15.936,26.304,46.296,44.744,81.416c5.288,10.144,10.296,19.944,15.032,29.392    c3.96,7.904,7.688,15.504,11.264,22.92c26.344,54.584,42.232,95.8,47.264,122.768c1.128,5.936,1.696,11.176,1.696,15.544    C339.88,369.928,286.048,423.76,219.88,423.76z M352.24,277.4c-0.424-1.816-0.92-3.728-1.424-5.648    c-0.128-0.472-0.224-0.92-0.352-1.4c-0.68-2.52-1.432-5.136-2.24-7.824c-0.064-0.216-0.128-0.424-0.192-0.64    c32.424-7.336,55.848-35.896,55.848-70.128h-16c0,27.128-18.888,49.704-44.84,54.872c-0.168-0.48-0.352-0.984-0.528-1.464    c-0.472-1.328-0.976-2.704-1.464-4.064c-0.64-1.76-1.288-3.536-1.968-5.352c-0.544-1.44-1.112-2.92-1.68-4.392    c-0.704-1.832-1.424-3.688-2.168-5.568c-0.608-1.528-1.224-3.072-1.856-4.632c-0.776-1.92-1.568-3.864-2.384-5.832    c-0.664-1.6-1.328-3.2-2.016-4.832c-0.856-2.032-1.744-4.104-2.64-6.184c-0.704-1.64-1.408-3.28-2.144-4.952    c-0.952-2.176-1.944-4.4-2.936-6.632c-0.744-1.672-1.48-3.328-2.248-5.032c-1.072-2.368-2.192-4.8-3.312-7.232    c-0.744-1.616-1.472-3.208-2.232-4.848c-1.336-2.872-2.728-5.816-4.128-8.76c-0.608-1.28-1.184-2.52-1.808-3.816    c-2.048-4.288-4.16-8.656-6.344-13.112c-0.272-0.56-0.568-1.136-0.84-1.696c-1.928-3.928-3.896-7.904-5.92-11.952    c-0.736-1.464-1.504-2.976-2.248-4.456c-1.608-3.184-3.216-6.384-4.88-9.648c-0.904-1.776-1.848-3.592-2.768-5.392    c-1.168-2.28-2.312-4.52-3.512-6.832c19.184-28.296,40.72-54.192,50.888-66.048c29.208,33.8,87.976,109.688,87.976,147.856    C419.88,232.584,391.28,268.144,352.24,277.4z" data-original="#000000" class="active-path" data-old_color="#000000" fill="#FFFFFF"/>
	</g>
</g><g>
	<g>
		<path d="M147.88,303.76h-16c0,48.52,39.48,88,88,88v-16C180.184,375.76,147.88,343.456,147.88,303.76z" data-original="#000000" class="active-path" data-old_color="#000000" fill="#FFFFFF"/>
	</g>
</g></g> </svg>
