<svg id="Capa_1" data-name="Capa 1" xmlns="http://www.w3.org/2000/svg" viewBox="0 0 319.94 359.64"><defs><style>.cls-1{fill:#fff;stroke:#fff;stroke-miterlimit:10;stroke-width:5px;}</style></defs><title>precip-daily</title><path class="cls-1" d="M340.08,129.55a6.8,6.8,0,0,0-7.24-6.83,7.14,7.14,0,0,0-1,.14c-9,2.19-221.21,54.43-271.95,117.12C7.72,304.39,15.16,397.17,76.44,446.78S230,484.34,282.16,419.93C332.91,357.24,339.81,138.8,340.08,129.55ZM85.45,435.65c-55.46-44.89-62.18-128.82-15-187.1,42.11-52,214.7-99.29,255.38-109.84-1.85,42-12.15,220.64-54.27,272.67C224.39,469.65,140.9,480.54,85.45,435.65Z" transform="translate(-22.64 -120.21)"/></svg>