<svg id="Capa_1" data-name="Capa 1" xmlns="http://www.w3.org/2000/svg" viewBox="0 0 512 422.96"><defs><style>.cls-1{fill:#fff;}</style></defs><title>pressure</title><path class="cls-1" d="M419.53,178.48c-15.55-77-84.15-134-163.53-134s-148,57-163.52,134a100.12,100.12,0,0,0,7.69,200h22.26a11.13,11.13,0,1,0,0-22.26H100.17a78,78,0,0,1-77.91-77.91c0-43,35-77.91,77.38-78,.12,0,.26,0,.38,0s.09.05.14.06a10.28,10.28,0,0,0,1.55.11h0a73.09,73.09,0,0,1,17.75,2.26,10.25,10.25,0,0,0,1.35.47,78.31,78.31,0,0,1,46.83,36.11A11.13,11.13,0,1,0,187,228.17a100.8,100.8,0,0,0-58.67-46,10.85,10.85,0,0,0-1.6-.57A101.43,101.43,0,0,0,115,179.19c14.86-64.85,73.46-112.41,141-112.41s126.15,47.56,141,112.41a101,101,0,0,0-11.69,2.4,12.9,12.9,0,0,0-1.58.56,100.92,100.92,0,0,0-58.69,46,11.14,11.14,0,0,0,19.28,11.15,78.32,78.32,0,0,1,46.83-36.13,12.5,12.5,0,0,0,1.34-.47,73.13,73.13,0,0,1,17.77-2.26,5.5,5.5,0,0,0,1.56-.11,77.91,77.91,0,1,1,0,155.82H389.57a11.13,11.13,0,1,0,0,22.26h22.26a100.12,100.12,0,0,0,7.7-200Z" transform="translate(0 -44.52)"/><path class="cls-1" d="M329.46,358.4a11.11,11.11,0,0,0-15.57,2.23L267.13,423V256a11.13,11.13,0,0,0-22.26,0V423l-46.75-62.33A11.13,11.13,0,1,0,180.32,374l66.79,89c.14.19.36.25.52.43a10.66,10.66,0,0,0,2.57,2.15,11.52,11.52,0,0,0,1.15.77,10.93,10.93,0,0,0,4.65,1.1,11.09,11.09,0,0,0,4.67-1.1,11.37,11.37,0,0,0,1.14-.77,10.66,10.66,0,0,0,2.57-2.15c.15-.18.38-.24.52-.43l66.79-89A11.12,11.12,0,0,0,329.46,358.4Z" transform="translate(0 -44.52)"/></svg>