<?xml version="1.0" encoding="utf-8"?>
<!-- Generator: Adobe Illustrator 24.0.3, SVG Export Plug-In . SVG Version: 6.00 Build 0)  -->
<svg version="1.1" id="Capa_1" xmlns="http://www.w3.org/2000/svg" xmlns:xlink="http://www.w3.org/1999/xlink" x="0px" y="0px"
	 viewBox="0 0 512 512" style="enable-background:new 0 0 512 512;" xml:space="preserve">
<style type="text/css">
	.st0{fill:#FFFFFF;}
</style>
<g>
	<g>
		<g>
			<path class="st0" d="M419.5,156.2c-15.5-77-84.1-134-163.5-134c-79.4,0-148,57-163.5,134C40.8,160.2,0,203.4,0,256
				c0,55.2,44.9,100.2,100.2,100.2h22.3c6.1,0,11.1-5,11.1-11.1s-5-11.1-11.1-11.1h-22.3c-43,0-77.9-34.9-77.9-77.9
				s34.9-77.9,77.4-78c0.1,0,0.3,0,0.4,0c0.1,0,0.1,0,0.2,0.1c0.1,0,0.2,0,0.2,0c0.4,0.1,0.9,0.1,1.3,0.1c5.8,0,11.8,0.8,17.7,2.3
				c0.4,0.2,0.9,0.3,1.4,0.5c19.6,5.3,36.7,18.5,46.8,36.1c3.1,5.3,9.9,7.1,15.2,4.1c5.3-3.1,7.1-9.9,4.1-15.2
				c-12.8-22.2-34.1-38.9-58.7-46c-0.5-0.2-1-0.4-1.6-0.6c-3.9-1-7.8-1.8-11.7-2.4c14.9-64.9,73.5-112.4,141-112.4
				c67.5,0,126.1,47.6,141,112.4c-3.9,0.6-7.8,1.3-11.7,2.4c-0.5,0.1-1.1,0.3-1.6,0.6c-24.6,7.1-45.9,23.9-58.7,46
				c-3.1,5.3-1.3,12.1,4.1,15.2c5.3,3.1,12.1,1.3,15.2-4.1c10.2-17.6,27.2-30.8,46.8-36.1c0.5-0.1,0.9-0.3,1.3-0.5
				c6-1.5,12-2.3,17.8-2.3c0.7,0,0.8,0,1.6-0.1c43,0,77.9,34.9,77.9,77.9s-34.9,77.9-77.9,77.9h-22.3c-6.1,0-11.1,5-11.1,11.1
				c0,6.1,5,11.1,11.1,11.1h22.3c55.2,0,100.2-44.9,100.2-100.2C512,203.4,471.2,160.2,419.5,156.2z"/>
		</g>
	</g>
	<g>
		<g>
			<path class="st0" d="M256,289.4c-6.1,0-11.1,5-11.1,11.1V345c0,6.1,5,11.1,11.1,11.1c6.1,0,11.1-5,11.1-11.1v-44.5
				C267.1,294.4,262.1,289.4,256,289.4z"/>
		</g>
	</g>
	<g>
		<g>
			<path class="st0" d="M256,400.7c-6.1,0-11.1,5-11.1,11.1v44.5c0,6.1,5,11.1,11.1,11.1c6.1,0,11.1-5,11.1-11.1v-44.5
				C267.1,405.7,262.1,400.7,256,400.7z"/>
		</g>
	</g>
	<g>
		<g>
			<path class="st0" d="M189.2,311.7c-6.1,0-11.1,5-11.1,11.1v44.5c0,6.1,5,11.1,11.1,11.1c6.1,0,11.1-5,11.1-11.1v-44.5
				C200.3,316.6,195.4,311.7,189.2,311.7z"/>
		</g>
	</g>
	<g>
		<g>
			<path class="st0" d="M322.8,311.7c-6.1,0-11.1,5-11.1,11.1v44.5c0,6.1,5,11.1,11.1,11.1c6.1,0,11.1-5,11.1-11.1v-44.5
				C333.9,316.6,328.9,311.7,322.8,311.7z"/>
		</g>
	</g>
	<g>
		<g>
			<path class="st0" d="M189.2,423c-6.1,0-11.1,5-11.1,11.1v44.5c0,6.1,5,11.1,11.1,11.1c6.1,0,11.1-5,11.1-11.1v-44.5
				C200.3,427.9,195.4,423,189.2,423z"/>
		</g>
	</g>
	<g>
		<g>
			<path class="st0" d="M322.8,423c-6.1,0-11.1,5-11.1,11.1v44.5c0,6.1,5,11.1,11.1,11.1c6.1,0,11.1-5,11.1-11.1v-44.5
				C333.9,427.9,328.9,423,322.8,423z"/>
		</g>
	</g>
</g>
</svg>
