<svg id="Capa_1" data-name="Capa 1" xmlns="http://www.w3.org/2000/svg" viewBox="0 0 512 467.48"><defs><style>.cls-1{fill:#fff;}</style></defs><title>sleet</title><path class="cls-1" d="M419.53,156.22c-15.55-77-84.15-134-163.53-134s-148,57-163.53,134a100.12,100.12,0,0,0,7.7,200h22.26a11.13,11.13,0,1,0,0-22.26H100.17A78,78,0,0,1,22.26,256c0-43,35-77.91,77.32-78l.43,0s.09.05.14.06.17,0,.26,0a11.77,11.77,0,0,0,1.32.12,73.17,73.17,0,0,1,17.76,2.26,10.25,10.25,0,0,0,1.35.47,78.38,78.38,0,0,1,46.85,36.12A11.12,11.12,0,1,0,187,205.91a99.47,99.47,0,0,0-58.67-46,12.1,12.1,0,0,0-1.6-.56,103.64,103.64,0,0,0-11.69-2.4C129.85,92.08,188.46,44.52,256,44.52S382.15,92.08,397,156.93a99,99,0,0,0-11.69,2.4,12.9,12.9,0,0,0-1.58.56,100.89,100.89,0,0,0-58.69,46,11.13,11.13,0,0,0,19.28,11.14,78.35,78.35,0,0,1,46.83-36.12,12.5,12.5,0,0,0,1.34-.47,73.13,73.13,0,0,1,17.77-2.26,5.5,5.5,0,0,0,1.56-.11,77.91,77.91,0,1,1,0,155.82H389.57a11.13,11.13,0,1,0,0,22.26h22.26a100.12,100.12,0,0,0,7.7-200Z" transform="translate(0 -22.26)"/><path class="cls-1" d="M256,244.87A11.13,11.13,0,0,0,244.87,256v66.78a11.13,11.13,0,1,0,22.26,0V256A11.13,11.13,0,0,0,256,244.87Z" transform="translate(0 -22.26)"/><path class="cls-1" d="M189.22,311.65a11.13,11.13,0,0,0-11.13,11.13v66.79a11.13,11.13,0,0,0,22.26,0V322.78A11.13,11.13,0,0,0,189.22,311.65Z" transform="translate(0 -22.26)"/><path class="cls-1" d="M322.78,311.65a11.13,11.13,0,0,0-11.13,11.13v66.79a11.13,11.13,0,0,0,22.26,0V322.78A11.13,11.13,0,0,0,322.78,311.65Z" transform="translate(0 -22.26)"/><circle class="cls-1" cx="189.22" cy="445.22" r="22.26"/><circle class="cls-1" cx="322.78" cy="445.22" r="22.26"/><circle class="cls-1" cx="256" cy="378.43" r="22.26"/></svg>