<svg id="Capa_1" data-name="Capa 1" xmlns="http://www.w3.org/2000/svg" viewBox="0 0 512 512"><defs><style>.cls-1{fill:#fff;}</style></defs><title>snow</title><path class="cls-1" d="M461,267.13h39.92a11.13,11.13,0,0,0,0-22.26H461l47.79-47.78A11.13,11.13,0,0,0,493,181.35l-63.52,63.52H282.87l89-89h62.18a11.13,11.13,0,1,0,0-22.26H394.17L442,85.78a11.12,11.12,0,1,0-15.73-15.73l-47.79,47.78V77.91a11.13,11.13,0,0,0-22.26,0v62.18l-89,89V82.53L330.65,19A11.13,11.13,0,0,0,314.91,3.28L267.13,51.05V11.13a11.13,11.13,0,1,0-22.26,0V51.05L197.09,3.26A11.13,11.13,0,0,0,181.35,19l63.52,63.52V229.13l-89-89V77.91a11.13,11.13,0,0,0-22.26,0v39.92L85.78,70.05A11.12,11.12,0,1,0,70.05,85.78l47.78,47.79H77.91a11.13,11.13,0,1,0,0,22.26h62.18l89,89H82.52L19,181.35A11.13,11.13,0,0,0,3.26,197.09l47.79,47.78H11.13a11.13,11.13,0,1,0,0,22.26H51.05L3.26,314.91A11.13,11.13,0,1,0,19,330.65l63.52-63.52H229.13l-89,89H77.91a11.13,11.13,0,0,0,0,22.26h39.92L70.05,426.22A11.12,11.12,0,1,0,85.78,442l47.79-47.78v39.92a11.13,11.13,0,0,0,22.26,0V371.91l89-89V429.48L181.35,493a11.13,11.13,0,0,0,15.74,15.74L244.87,461v39.92a11.13,11.13,0,0,0,22.26,0V461l47.78,47.79A11.13,11.13,0,0,0,330.65,493l-63.52-63.52V282.87l89,89v62.18a11.13,11.13,0,1,0,22.26,0V394.17L426.22,442A11.12,11.12,0,1,0,442,426.22l-47.78-47.79h39.92a11.13,11.13,0,1,0,0-22.26H371.91l-89-89H429.48L493,330.65a11.13,11.13,0,0,0,15.74-15.74Z" transform="translate(0 0)"/></svg>