<svg id="Capa_1" data-name="Capa 1" xmlns="http://www.w3.org/2000/svg" viewBox="0 0 512 511.99"><defs><style>.cls-1{fill:#fff;}</style></defs><title>sunrise</title><path class="cls-1" d="M500.87,489.73H422.39a166,166,0,0,0-40.89-98.62L442,330.64a11.13,11.13,0,1,0-15.74-15.73l-60.46,60.46a166.11,166.11,0,0,0-98.63-40.9V256a11.13,11.13,0,0,0-22.26,0v78.48a166.11,166.11,0,0,0-98.63,40.9L85.78,314.91A11.13,11.13,0,1,0,70,330.64l60.46,60.47a166,166,0,0,0-40.89,98.62H11.13a11.13,11.13,0,1,0,0,22.26H500.87a11.13,11.13,0,0,0,0-22.26Zm-389,0C117.59,415.14,180,356.17,256,356.17s138.41,59,144.13,133.56Z" transform="translate(0 -0.01)"/><path class="cls-1" d="M330.65,70,263.88,3.27A11,11,0,0,0,260.25.85a11.17,11.17,0,0,0-8.5,0,11.05,11.05,0,0,0-3.63,2.42L181.35,70a11.13,11.13,0,0,0,15.74,15.74L244.87,38V189.21a11.13,11.13,0,1,0,22.26,0V38l47.78,47.79A11.13,11.13,0,0,0,330.65,70Z" transform="translate(0 -0.01)"/></svg>