<svg id="Capa_1" data-name="Capa 1" xmlns="http://www.w3.org/2000/svg" viewBox="0 0 512 512"><defs><style>.cls-1{fill:#fff;}</style></defs><title>sunset</title><path class="cls-1" d="M500.87,244.87H422.39a166.1,166.1,0,0,0-40.89-98.63L442,85.78A11.13,11.13,0,1,0,426.22,70L365.76,130.5a166.1,166.1,0,0,0-98.63-40.89V11.13a11.13,11.13,0,1,0-22.26,0V89.61a166.1,166.1,0,0,0-98.63,40.89L85.78,70A11.13,11.13,0,1,0,70,85.78l60.46,60.46a166.1,166.1,0,0,0-40.89,98.63H11.13a11.13,11.13,0,1,0,0,22.26H500.87a11.13,11.13,0,0,0,0-22.26Zm-389,0C117.59,170.27,180,111.3,256,111.3s138.41,59,144.13,133.57Z"/><path class="cls-1" d="M330.65,426.22a11.12,11.12,0,0,0-15.74,0L267.13,474V322.78a11.13,11.13,0,0,0-22.26,0V474l-47.78-47.78A11.13,11.13,0,0,0,181.35,442l66.77,66.77a10.92,10.92,0,0,0,3.63,2.41,10.93,10.93,0,0,0,8.5,0,11,11,0,0,0,3.63-2.41L330.65,442A11.12,11.12,0,0,0,330.65,426.22Z"/></svg>