<?xml version="1.0"?>
<svg xmlns="http://www.w3.org/2000/svg" id="Layer_1" enable-background="new 0 0 512 512" height="512px" viewBox="0 0 512 512" width="512px"><g><path d="m506.98 416.572-80-32c-5.246-2.101-10.971 1.77-10.971 7.428v24h-120.805c-3.189-15.649-15.546-28.006-31.195-31.195v-17.005c84.522-4.183 152-74.257 152-159.8v-20l60.8-45.6c6.134-4.601 2.87-14.4-4.8-14.4h-56v-8c0-16.092-6.832-30.61-17.736-40.834 22.891-6.197 23.89-38.59 1.153-45.993-3.25-18.815-19.689-33.173-39.417-33.173-19.729 0-36.167 14.358-39.417 33.173-22.723 7.399-21.748 39.793 1.153 45.993-10.904 10.224-17.736 24.742-17.736 40.834v72h-16c-4.418 0-8 3.582-8 8s3.582 8 8 8h16c0 26.468-21.532 48-48 48s-48-21.532-48-48h16c4.418 0 8-3.582 8-8s-3.582-8-8-8h-112v-24c0-30.879-25.121-56-56-56h-48c-4.418 0-8 3.582-8 8v64c0 13.233 10.767 24 24 24h72c0 85.543 67.478 155.617 152 159.8v17.005c-15.649 3.189-28.006 15.546-31.195 31.195h-109.49l-29.657-29.657c-1.501-1.5-3.535-2.343-5.657-2.343h-64c-7.124 0-10.677 8.637-5.657 13.657l18.342 18.343h-12.686c-4.418 0-8 3.582-8 8s3.582 8 8 8h12.686l-18.343 18.343c-5.021 5.021-1.465 13.657 5.657 13.657h64c2.122 0 4.156-.843 5.657-2.343l29.657-29.657h109.49c3.189 15.649 15.546 28.006 31.195 31.195v32.805h-32c-4.418 0-8 3.582-8 8s3.582 8 8 8h80c4.418 0 8-3.582 8-8s-3.582-8-8-8h-32v-32.805c15.649-3.189 28.006-15.546 31.195-31.195h120.805v24c0 4.412 3.576 8 8.001 8 2.207 0-4.408 2.379 82.97-32.572 6.692-2.676 6.691-12.18.001-14.856zm-58.971-272.572-32 24v-24zm-120-80c-4.411 0-8-3.589-8-8s3.589-8 8-8c4.418 0 8-3.582 8-8 0-13.233 10.767-24 24-24s24 10.767 24 24c0 4.418 3.582 8 8 8 4.411 0 8 3.589 8 8s-3.589 8-8 8zm-312 120v-24h32c8.822 0 16 7.178 16 16v16h-40c-4.411 0-8-3.589-8-8zm64 8v-16c0-17.645-14.355-32-32-32h-32v-16h40c22.056 0 40 17.944 40 40v24zm32 16h80c0 35.29 28.71 64 64 64s64-28.71 64-64c0-9.37 0-79.844 0-88 0-22.056 17.944-40 40-40s40 17.944 40 40v88c0 79.402-64.598 144-144 144s-144-64.598-144-144zm-84.687 192h41.373l16 16h-41.372zm41.373 48h-41.373l16.001-16h41.372zm187.314 0c-13.233 0-24-10.767-24-24s10.767-24 24-24 24 10.767 24 24-10.767 24-24 24zm176-3.816v-40.367l50.459 20.183z" data-original="#000000" class="active-path" data-old_color="#000000" fill="#050C38"/><path d="m256.009 208c4.399 0 8-3.581 8-8 0-4.369-3.544-8-8-8-4.418 0-8 3.577-8 8 0 4.417 3.58 8 8 8z" data-original="#000000" class="active-path" data-old_color="#000000" fill="#050C38"/></g> </svg>
