<svg id="Capa_1" data-name="Capa 1" xmlns="http://www.w3.org/2000/svg" viewBox="0 0 512 422.96"><defs><style>.cls-1{fill:#fff;}</style></defs><title>wind</title><path class="cls-1" d="M411.83,66.78A100.3,100.3,0,0,0,311.65,167a11.13,11.13,0,0,0,22.26,0,77.92,77.92,0,1,1,77.92,77.91H11.13a11.13,11.13,0,1,0,0,22.26h400.7a100.18,100.18,0,0,0,0-200.35Z" transform="translate(0 -44.52)"/><path class="cls-1" d="M200.35,44.52a78,78,0,0,0-77.92,77.91,11.14,11.14,0,1,0,22.27,0,55.65,55.65,0,1,1,55.65,55.66H11.13a11.13,11.13,0,1,0,0,22.26H200.35a77.92,77.92,0,0,0,0-155.83Z" transform="translate(0 -44.52)"/><path class="cls-1" d="M389.57,311.65H11.13a11.13,11.13,0,0,0,0,22.26H389.57a55.66,55.66,0,1,1-55.66,55.66,11.13,11.13,0,1,0-22.26,0,77.92,77.92,0,1,0,77.92-77.92Z" transform="translate(0 -44.52)"/></svg>